# MagicaVoxel @ Ephtracy

# group
o 

# material
mtllib Chair.mtl
usemtl palette

# normals
vn -1 0 0
vn 1 0 0
vn 0 0 1
vn 0 0 -1
vn 0 -1 0
vn 0 1 0

# texcoords
vt 0.876953 0.5
vt 0.912109 0.5
vt 0.939453 0.5

# verts
v -0.4 0 0.4
v -0.4 0 0.3
v -0.4 0 -0.4
v -0.4 0 -0.5
v -0.4 0.5 0.4
v -0.4 0.5 0.3
v -0.4 0.5 -0.4
v -0.4 0.5 -0.5
v -0.4 0.9 0.1
v -0.4 0.9 -0.2
v -0.4 1 0.2
v -0.4 1 0.1
v -0.4 1 -0.2
v -0.4 1 -0.3
v -0.4 1.2 0.3
v -0.4 1.2 0.2
v -0.4 1.2 0.1
v -0.4 1.2 -0.2
v -0.4 1.2 -0.3
v -0.4 1.2 -0.4
v -0.4 1.3 0.3
v -0.4 1.3 0.2
v -0.4 1.3 -0.3
v -0.4 1.3 -0.4
v -0.4 1.4 0.4
v -0.4 1.4 0.3
v -0.4 1.4 0.2
v -0.4 1.4 -0.3
v -0.4 1.4 -0.4
v -0.4 1.4 -0.5
v -0.4 1.5 0.4
v -0.4 1.5 0.3
v -0.4 1.5 0.2
v -0.4 1.5 0.1
v -0.4 1.5 0
v -0.4 1.5 -0.1
v -0.4 1.5 -0.2
v -0.4 1.5 -0.3
v -0.4 1.5 -0.4
v -0.4 1.5 -0.5
v -0.4 1.6 0.3
v -0.4 1.6 0.2
v -0.4 1.6 0.1
v -0.4 1.6 0
v -0.4 1.6 -0.1
v -0.4 1.6 -0.2
v -0.4 1.6 -0.3
v -0.4 1.6 -0.4
v -0.4 1.7 0.2
v -0.4 1.7 0
v -0.4 1.7 -0.1
v -0.4 1.7 -0.3
v 0.2 0 0.4
v 0.2 0 0.3
v 0.2 0 -0.4
v 0.2 0 -0.5
v 0.2 0.5 0.4
v 0.2 0.5 0.3
v 0.2 0.5 -0.4
v 0.2 0.5 -0.5
v -0.3 0 0.4
v -0.3 0 0.3
v -0.3 0 -0.4
v -0.3 0 -0.5
v -0.3 0.5 0.4
v -0.3 0.5 0.3
v -0.3 0.5 -0.4
v -0.3 0.5 -0.5
v -0.3 0.6 0.4
v -0.3 0.6 -0.5
v -0.3 0.9 0.1
v -0.3 0.9 -0.2
v -0.3 1 0.2
v -0.3 1 0.1
v -0.3 1 -0.2
v -0.3 1 -0.3
v -0.3 1.2 0.3
v -0.3 1.2 0.2
v -0.3 1.2 0.1
v -0.3 1.2 -0.2
v -0.3 1.2 -0.3
v -0.3 1.2 -0.4
v -0.3 1.3 0.3
v -0.3 1.3 0.2
v -0.3 1.3 -0.3
v -0.3 1.3 -0.4
v -0.3 1.4 0.4
v -0.3 1.4 0.3
v -0.3 1.4 0.2
v -0.3 1.4 -0.3
v -0.3 1.4 -0.4
v -0.3 1.4 -0.5
v -0.3 1.5 0.4
v -0.3 1.5 0.3
v -0.3 1.5 0.2
v -0.3 1.5 0.1
v -0.3 1.5 0
v -0.3 1.5 -0.1
v -0.3 1.5 -0.2
v -0.3 1.5 -0.3
v -0.3 1.5 -0.4
v -0.3 1.5 -0.5
v -0.3 1.6 0.3
v -0.3 1.6 0.2
v -0.3 1.6 0.1
v -0.3 1.6 0
v -0.3 1.6 -0.1
v -0.3 1.6 -0.2
v -0.3 1.6 -0.3
v -0.3 1.6 -0.4
v -0.3 1.7 0.2
v -0.3 1.7 0
v -0.3 1.7 -0.1
v -0.3 1.7 -0.3
v 0.3 0 0.4
v 0.3 0 0.3
v 0.3 0 -0.4
v 0.3 0 -0.5
v 0.3 0.5 0.4
v 0.3 0.5 0.3
v 0.3 0.5 -0.4
v 0.3 0.5 -0.5
v 0.3 0.6 0.4
v 0.3 0.6 -0.5
v -0.4 0 0.4
v -0.4 0.5 0.4
v -0.4 1.4 0.4
v -0.4 1.5 0.4
v -0.3 0 0.4
v -0.3 0.5 0.4
v -0.3 0.6 0.4
v -0.3 1.4 0.4
v -0.3 1.5 0.4
v 0.2 0 0.4
v 0.2 0.5 0.4
v 0.3 0 0.4
v 0.3 0.5 0.4
v 0.3 0.6 0.4
v -0.4 1.5 0.3
v -0.4 1.6 0.3
v -0.3 1.5 0.3
v -0.3 1.6 0.3
v -0.4 1.2 0.2
v -0.4 1.3 0.2
v -0.4 1.4 0.2
v -0.4 1.5 0.2
v -0.4 1.6 0.2
v -0.4 1.7 0.2
v -0.3 1.2 0.2
v -0.3 1.3 0.2
v -0.3 1.4 0.2
v -0.3 1.5 0.2
v -0.3 1.6 0.2
v -0.3 1.7 0.2
v -0.4 1 0.1
v -0.4 1.2 0.1
v -0.3 1 0.1
v -0.3 1.2 0.1
v -0.4 0.9 -0.2
v -0.4 1 -0.2
v -0.3 0.9 -0.2
v -0.3 1 -0.2
v -0.4 1 -0.3
v -0.4 1.2 -0.3
v -0.3 1 -0.3
v -0.3 1.2 -0.3
v -0.4 0 -0.4
v -0.4 0.5 -0.4
v -0.4 1.2 -0.4
v -0.4 1.3 -0.4
v -0.4 1.4 -0.4
v -0.4 1.5 -0.4
v -0.3 0 -0.4
v -0.3 0.5 -0.4
v -0.3 1.2 -0.4
v -0.3 1.3 -0.4
v -0.3 1.4 -0.4
v -0.3 1.5 -0.4
v 0.2 0 -0.4
v 0.2 0.5 -0.4
v 0.3 0 -0.4
v 0.3 0.5 -0.4
v -0.4 0 0.3
v -0.4 0.5 0.3
v -0.4 1.2 0.3
v -0.4 1.3 0.3
v -0.4 1.4 0.3
v -0.4 1.5 0.3
v -0.3 0 0.3
v -0.3 0.5 0.3
v -0.3 1.2 0.3
v -0.3 1.3 0.3
v -0.3 1.4 0.3
v -0.3 1.5 0.3
v 0.2 0 0.3
v 0.2 0.5 0.3
v 0.3 0 0.3
v 0.3 0.5 0.3
v -0.4 1 0.2
v -0.4 1.2 0.2
v -0.3 1 0.2
v -0.3 1.2 0.2
v -0.4 0.9 0.1
v -0.4 1 0.1
v -0.3 0.9 0.1
v -0.3 1 0.1
v -0.4 1 -0.2
v -0.4 1.2 -0.2
v -0.3 1 -0.2
v -0.3 1.2 -0.2
v -0.4 1.2 -0.3
v -0.4 1.3 -0.3
v -0.4 1.4 -0.3
v -0.4 1.5 -0.3
v -0.4 1.6 -0.3
v -0.4 1.7 -0.3
v -0.3 1.2 -0.3
v -0.3 1.3 -0.3
v -0.3 1.4 -0.3
v -0.3 1.5 -0.3
v -0.3 1.6 -0.3
v -0.3 1.7 -0.3
v -0.4 1.5 -0.4
v -0.4 1.6 -0.4
v -0.3 1.5 -0.4
v -0.3 1.6 -0.4
v -0.4 0 -0.5
v -0.4 0.5 -0.5
v -0.4 1.4 -0.5
v -0.4 1.5 -0.5
v -0.3 0 -0.5
v -0.3 0.5 -0.5
v -0.3 0.6 -0.5
v -0.3 1.4 -0.5
v -0.3 1.5 -0.5
v 0.2 0 -0.5
v 0.2 0.5 -0.5
v 0.3 0 -0.5
v 0.3 0.5 -0.5
v 0.3 0.6 -0.5
v -0.4 0 0.4
v -0.3 0 0.4
v 0.2 0 0.4
v 0.3 0 0.4
v -0.4 0 0.3
v -0.3 0 0.3
v 0.2 0 0.3
v 0.3 0 0.3
v -0.4 0 -0.4
v -0.3 0 -0.4
v 0.2 0 -0.4
v 0.3 0 -0.4
v -0.4 0 -0.5
v -0.3 0 -0.5
v 0.2 0 -0.5
v 0.3 0 -0.5
v -0.3 0.5 0.4
v 0.2 0.5 0.4
v -0.4 0.5 0.3
v -0.3 0.5 0.3
v 0.2 0.5 0.3
v 0.3 0.5 0.3
v -0.4 0.5 -0.4
v -0.3 0.5 -0.4
v 0.2 0.5 -0.4
v 0.3 0.5 -0.4
v -0.3 0.5 -0.5
v 0.2 0.5 -0.5
v -0.4 1 0.1
v -0.3 1 0.1
v -0.4 1 -0.2
v -0.3 1 -0.2
v -0.4 1.2 0.2
v -0.3 1.2 0.2
v -0.4 1.2 0.1
v -0.3 1.2 0.1
v -0.4 1.2 -0.2
v -0.3 1.2 -0.2
v -0.4 1.2 -0.3
v -0.3 1.2 -0.3
v -0.4 1.3 0.3
v -0.3 1.3 0.3
v -0.4 1.3 0.2
v -0.3 1.3 0.2
v -0.4 1.3 -0.3
v -0.3 1.3 -0.3
v -0.4 1.3 -0.4
v -0.3 1.3 -0.4
v -0.4 1.5 0.3
v -0.3 1.5 0.3
v -0.4 1.5 0.2
v -0.3 1.5 0.2
v -0.4 1.5 -0.3
v -0.3 1.5 -0.3
v -0.4 1.5 -0.4
v -0.3 1.5 -0.4
v -0.3 0.6 0.4
v 0.3 0.6 0.4
v -0.3 0.6 -0.5
v 0.3 0.6 -0.5
v -0.4 0.9 0.1
v -0.3 0.9 0.1
v -0.4 0.9 -0.2
v -0.3 0.9 -0.2
v -0.4 1 0.2
v -0.3 1 0.2
v -0.4 1 0.1
v -0.3 1 0.1
v -0.4 1 -0.2
v -0.3 1 -0.2
v -0.4 1 -0.3
v -0.3 1 -0.3
v -0.4 1.2 0.3
v -0.3 1.2 0.3
v -0.4 1.2 0.2
v -0.3 1.2 0.2
v -0.4 1.2 -0.3
v -0.3 1.2 -0.3
v -0.4 1.2 -0.4
v -0.3 1.2 -0.4
v -0.4 1.4 0.3
v -0.3 1.4 0.3
v -0.4 1.4 0.2
v -0.3 1.4 0.2
v -0.4 1.4 -0.3
v -0.3 1.4 -0.3
v -0.4 1.4 -0.4
v -0.3 1.4 -0.4
v -0.4 1.5 0.4
v -0.3 1.5 0.4
v -0.4 1.5 0.3
v -0.3 1.5 0.3
v -0.4 1.5 -0.4
v -0.3 1.5 -0.4
v -0.4 1.5 -0.5
v -0.3 1.5 -0.5
v -0.4 1.6 0.3
v -0.3 1.6 0.3
v -0.4 1.6 0.2
v -0.3 1.6 0.2
v -0.4 1.6 -0.3
v -0.3 1.6 -0.3
v -0.4 1.6 -0.4
v -0.3 1.6 -0.4
v -0.4 1.7 0.2
v -0.3 1.7 0.2
v -0.4 1.7 0
v -0.3 1.7 0
v -0.4 1.7 -0.1
v -0.3 1.7 -0.1
v -0.4 1.7 -0.3
v -0.3 1.7 -0.3

# faces
f 5/1/1 2/1/1 1/1/1
f 6/1/1 2/1/1 5/1/1
f 7/1/1 4/1/1 3/1/1
f 8/1/1 4/1/1 7/1/1
f 9/3/1 6/3/1 5/3/1
f 9/3/1 7/3/1 6/3/1
f 9/3/1 8/3/1 7/3/1
f 10/3/1 8/3/1 9/3/1
f 11/3/1 9/3/1 5/3/1
f 12/3/1 9/3/1 11/3/1
f 13/3/1 8/3/1 10/3/1
f 14/3/1 8/3/1 13/3/1
f 15/3/1 11/3/1 5/3/1
f 16/3/1 11/3/1 15/3/1
f 17/3/1 13/3/1 12/3/1
f 18/3/1 13/3/1 17/3/1
f 19/3/1 8/3/1 14/3/1
f 20/3/1 8/3/1 19/3/1
f 21/3/1 15/3/1 5/3/1
f 22/3/1 18/3/1 17/3/1
f 22/3/1 19/3/1 18/3/1
f 22/3/1 17/3/1 16/3/1
f 23/3/1 19/3/1 22/3/1
f 24/3/1 8/3/1 20/3/1
f 25/3/1 21/3/1 5/3/1
f 25/3/1 24/3/1 23/3/1
f 25/3/1 23/3/1 22/3/1
f 25/3/1 22/3/1 21/3/1
f 26/3/1 24/3/1 25/3/1
f 27/3/1 24/3/1 26/3/1
f 28/3/1 24/3/1 27/3/1
f 29/3/1 8/3/1 24/3/1
f 29/3/1 24/3/1 28/3/1
f 30/3/1 8/3/1 29/3/1
f 31/2/1 26/2/1 25/2/1
f 32/2/1 26/2/1 31/2/1
f 33/2/1 28/2/1 27/2/1
f 34/2/1 28/2/1 33/2/1
f 35/2/1 28/2/1 34/2/1
f 36/2/1 28/2/1 35/2/1
f 37/2/1 28/2/1 36/2/1
f 38/2/1 28/2/1 37/2/1
f 39/2/1 30/2/1 29/2/1
f 40/2/1 30/2/1 39/2/1
f 41/2/1 33/2/1 32/2/1
f 41/2/1 34/2/1 33/2/1
f 42/2/1 34/2/1 41/2/1
f 43/1/1 35/1/1 34/1/1
f 43/2/1 34/2/1 42/2/1
f 44/2/1 36/2/1 35/2/1
f 44/1/1 35/1/1 43/1/1
f 45/1/1 37/1/1 36/1/1
f 45/2/1 36/2/1 44/2/1
f 46/2/1 38/2/1 37/2/1
f 46/1/1 37/1/1 45/1/1
f 46/2/1 39/2/1 38/2/1
f 47/2/1 39/2/1 46/2/1
f 48/2/1 39/2/1 47/2/1
f 49/2/1 43/2/1 42/2/1
f 49/2/1 44/2/1 43/2/1
f 50/1/1 45/1/1 44/1/1
f 50/2/1 44/2/1 49/2/1
f 51/2/1 47/2/1 46/2/1
f 51/1/1 45/1/1 50/1/1
f 51/2/1 46/2/1 45/2/1
f 52/2/1 47/2/1 51/2/1
f 57/1/1 54/1/1 53/1/1
f 58/1/1 54/1/1 57/1/1
f 59/1/1 56/1/1 55/1/1
f 60/1/1 56/1/1 59/1/1
f 61/1/2 62/1/2 65/1/2
f 65/1/2 62/1/2 66/1/2
f 63/1/2 64/1/2 67/1/2
f 67/1/2 64/1/2 68/1/2
f 69/3/2 70/3/2 71/3/2
f 71/3/2 70/3/2 72/3/2
f 69/3/2 71/3/2 73/3/2
f 73/3/2 71/3/2 74/3/2
f 72/3/2 70/3/2 75/3/2
f 75/3/2 70/3/2 76/3/2
f 69/3/2 73/3/2 77/3/2
f 77/3/2 73/3/2 78/3/2
f 74/3/2 75/3/2 79/3/2
f 79/3/2 75/3/2 80/3/2
f 76/3/2 70/3/2 81/3/2
f 81/3/2 70/3/2 82/3/2
f 69/3/2 77/3/2 83/3/2
f 79/3/2 80/3/2 84/3/2
f 80/3/2 81/3/2 84/3/2
f 78/3/2 79/3/2 84/3/2
f 84/3/2 81/3/2 85/3/2
f 82/3/2 70/3/2 86/3/2
f 69/3/2 83/3/2 87/3/2
f 85/3/2 86/3/2 87/3/2
f 84/3/2 85/3/2 87/3/2
f 83/3/2 84/3/2 87/3/2
f 87/3/2 86/3/2 88/3/2
f 88/3/2 86/3/2 89/3/2
f 89/3/2 86/3/2 90/3/2
f 86/3/2 70/3/2 91/3/2
f 90/3/2 86/3/2 91/3/2
f 91/3/2 70/3/2 92/3/2
f 87/2/2 88/2/2 93/2/2
f 93/2/2 88/2/2 94/2/2
f 89/2/2 90/2/2 95/2/2
f 95/2/2 90/2/2 96/2/2
f 96/2/2 90/2/2 97/2/2
f 97/2/2 90/2/2 98/2/2
f 98/2/2 90/2/2 99/2/2
f 99/2/2 90/2/2 100/2/2
f 91/2/2 92/2/2 101/2/2
f 101/2/2 92/2/2 102/2/2
f 94/2/2 95/2/2 103/2/2
f 95/2/2 96/2/2 103/2/2
f 103/2/2 96/2/2 104/2/2
f 96/1/2 97/1/2 105/1/2
f 104/2/2 96/2/2 105/2/2
f 97/2/2 98/2/2 106/2/2
f 105/1/2 97/1/2 106/1/2
f 98/1/2 99/1/2 107/1/2
f 106/2/2 98/2/2 107/2/2
f 99/2/2 100/2/2 108/2/2
f 107/1/2 99/1/2 108/1/2
f 100/2/2 101/2/2 108/2/2
f 108/2/2 101/2/2 109/2/2
f 109/2/2 101/2/2 110/2/2
f 104/2/2 105/2/2 111/2/2
f 105/2/2 106/2/2 111/2/2
f 106/1/2 107/1/2 112/1/2
f 111/2/2 106/2/2 112/2/2
f 108/2/2 109/2/2 113/2/2
f 112/1/2 107/1/2 113/1/2
f 107/2/2 108/2/2 113/2/2
f 113/2/2 109/2/2 114/2/2
f 115/1/2 116/1/2 119/1/2
f 119/1/2 116/1/2 120/1/2
f 117/1/2 118/1/2 121/1/2
f 121/1/2 118/1/2 122/1/2
f 119/3/2 120/3/2 123/3/2
f 120/3/2 121/3/2 123/3/2
f 121/3/2 122/3/2 123/3/2
f 123/3/2 122/3/2 124/3/2
f 129/1/3 126/1/3 125/1/3
f 130/3/3 127/3/3 126/3/3
f 130/1/3 126/1/3 129/1/3
f 131/3/3 127/3/3 130/3/3
f 132/2/3 128/2/3 127/2/3
f 132/3/3 127/3/3 131/3/3
f 133/2/3 128/2/3 132/2/3
f 135/3/3 131/3/3 130/3/3
f 136/1/3 135/1/3 134/1/3
f 137/3/3 131/3/3 135/3/3
f 137/1/3 135/1/3 136/1/3
f 138/3/3 131/3/3 137/3/3
f 141/2/3 140/2/3 139/2/3
f 142/2/3 140/2/3 141/2/3
f 149/3/3 144/3/3 143/3/3
f 150/3/3 144/3/3 149/3/3
f 151/2/3 146/2/3 145/2/3
f 152/2/3 146/2/3 151/2/3
f 153/2/3 148/2/3 147/2/3
f 154/2/3 148/2/3 153/2/3
f 157/3/3 156/3/3 155/3/3
f 158/3/3 156/3/3 157/3/3
f 161/3/3 160/3/3 159/3/3
f 162/3/3 160/3/3 161/3/3
f 165/3/3 164/3/3 163/3/3
f 166/3/3 164/3/3 165/3/3
f 173/1/3 168/1/3 167/1/3
f 174/1/3 168/1/3 173/1/3
f 175/3/3 170/3/3 169/3/3
f 176/3/3 170/3/3 175/3/3
f 177/2/3 172/2/3 171/2/3
f 178/2/3 172/2/3 177/2/3
f 181/1/3 180/1/3 179/1/3
f 182/1/3 180/1/3 181/1/3
f 183/1/4 184/1/4 189/1/4
f 189/1/4 184/1/4 190/1/4
f 185/3/4 186/3/4 191/3/4
f 191/3/4 186/3/4 192/3/4
f 187/2/4 188/2/4 193/2/4
f 193/2/4 188/2/4 194/2/4
f 195/1/4 196/1/4 197/1/4
f 197/1/4 196/1/4 198/1/4
f 199/3/4 200/3/4 201/3/4
f 201/3/4 200/3/4 202/3/4
f 203/3/4 204/3/4 205/3/4
f 205/3/4 204/3/4 206/3/4
f 207/3/4 208/3/4 209/3/4
f 209/3/4 208/3/4 210/3/4
f 211/3/4 212/3/4 217/3/4
f 217/3/4 212/3/4 218/3/4
f 213/2/4 214/2/4 219/2/4
f 219/2/4 214/2/4 220/2/4
f 215/2/4 216/2/4 221/2/4
f 221/2/4 216/2/4 222/2/4
f 223/2/4 224/2/4 225/2/4
f 225/2/4 224/2/4 226/2/4
f 227/1/4 228/1/4 231/1/4
f 228/3/4 229/3/4 232/3/4
f 231/1/4 228/1/4 232/1/4
f 232/3/4 229/3/4 233/3/4
f 229/2/4 230/2/4 234/2/4
f 233/3/4 229/3/4 234/3/4
f 234/2/4 230/2/4 235/2/4
f 232/3/4 233/3/4 237/3/4
f 236/1/4 237/1/4 238/1/4
f 237/3/4 233/3/4 239/3/4
f 238/1/4 237/1/4 239/1/4
f 239/3/4 233/3/4 240/3/4
f 245/1/5 242/1/5 241/1/5
f 246/1/5 242/1/5 245/1/5
f 247/1/5 244/1/5 243/1/5
f 248/1/5 244/1/5 247/1/5
f 253/1/5 250/1/5 249/1/5
f 254/1/5 250/1/5 253/1/5
f 255/1/5 252/1/5 251/1/5
f 256/1/5 252/1/5 255/1/5
f 260/3/5 258/3/5 257/3/5
f 261/3/5 258/3/5 260/3/5
f 263/3/5 260/3/5 259/3/5
f 263/3/5 262/3/5 261/3/5
f 263/3/5 261/3/5 260/3/5
f 264/3/5 262/3/5 263/3/5
f 265/3/5 262/3/5 264/3/5
f 266/3/5 262/3/5 265/3/5
f 267/3/5 265/3/5 264/3/5
f 268/3/5 265/3/5 267/3/5
f 271/3/5 270/3/5 269/3/5
f 272/3/5 270/3/5 271/3/5
f 275/3/5 274/3/5 273/3/5
f 276/3/5 274/3/5 275/3/5
f 279/3/5 278/3/5 277/3/5
f 280/3/5 278/3/5 279/3/5
f 283/3/5 282/3/5 281/3/5
f 284/3/5 282/3/5 283/3/5
f 287/3/5 286/3/5 285/3/5
f 288/3/5 286/3/5 287/3/5
f 291/2/5 290/2/5 289/2/5
f 292/2/5 290/2/5 291/2/5
f 295/2/5 294/2/5 293/2/5
f 296/2/5 294/2/5 295/2/5
f 297/3/6 298/3/6 299/3/6
f 299/3/6 298/3/6 300/3/6
f 301/3/6 302/3/6 303/3/6
f 303/3/6 302/3/6 304/3/6
f 305/3/6 306/3/6 307/3/6
f 307/3/6 306/3/6 308/3/6
f 309/3/6 310/3/6 311/3/6
f 311/3/6 310/3/6 312/3/6
f 313/3/6 314/3/6 315/3/6
f 315/3/6 314/3/6 316/3/6
f 317/3/6 318/3/6 319/3/6
f 319/3/6 318/3/6 320/3/6
f 321/3/6 322/3/6 323/3/6
f 323/3/6 322/3/6 324/3/6
f 325/3/6 326/3/6 327/3/6
f 327/3/6 326/3/6 328/3/6
f 329/2/6 330/2/6 331/2/6
f 331/2/6 330/2/6 332/2/6
f 333/2/6 334/2/6 335/2/6
f 335/2/6 334/2/6 336/2/6
f 337/2/6 338/2/6 339/2/6
f 339/2/6 338/2/6 340/2/6
f 341/2/6 342/2/6 343/2/6
f 343/2/6 342/2/6 344/2/6
f 345/2/6 346/2/6 347/2/6
f 347/2/6 346/2/6 348/2/6
f 347/1/6 348/1/6 349/1/6
f 349/1/6 348/1/6 350/1/6
f 349/2/6 350/2/6 351/2/6
f 351/2/6 350/2/6 352/2/6
