# MagicaVoxel @ Ephtracy

# group
o 

# material
mtllib BackFront.mtl
usemtl palette

# normals
vn -1 0 0
vn 1 0 0
vn 0 0 1
vn 0 0 -1
vn 0 -1 0
vn 0 1 0

# texcoords
vt 0.853516 0.5
vt 0.908203 0.5
vt 0.912109 0.5
vt 0.916016 0.5
vt 0.923828 0.5
vt 0.927734 0.5

# verts
v -3.6 0.4 6
v -3.6 0.4 5.6
v -3.6 0.7 6
v -3.6 0.7 5.6
v -3.6 4.4 6
v -3.6 4.4 5.6
v -3.6 5 6
v -3.6 5 5.6
v -3.2 0.4 6.4
v -3.2 0.4 6
v -3.2 0.7 6
v -3.2 0.8 6.4
v -3.2 0.8 6
v -2.4 3.2 6.1
v -2.4 3.2 6
v -2.4 3.6 6.1
v -2.4 3.6 6
v -0.3 4.7 6
v -0.3 4.7 5.9
v -0.3 5 6
v -0.3 5 5.9
v 0.6 2 6
v 0.6 2 5.9
v 0.6 2.2 6
v 0.6 2.2 5.9
v 2 0.4 6.4
v 2 0.4 6
v 2 0.7 6
v 2 0.8 6.4
v 2 0.8 6
v 4 1.6 6.1
v 4 1.6 6
v 4 2 6.1
v 4 2 6
v 4.4 0.4 6.4
v 4.4 0.4 6
v 4.4 0.7 6
v 4.4 0.8 6.4
v 4.4 0.8 6
v -2.8 0.4 6.4
v -2.8 0.4 6
v -2.8 0.7 6
v -2.8 0.8 6.4
v -2.8 0.8 6
v -1.6 3.2 6.1
v -1.6 3.2 6
v -1.6 3.6 6.1
v -1.6 3.6 6
v -0.8 4.7 6
v -0.8 4.7 5.9
v -0.8 5 6
v -0.8 5 5.9
v 0.2 2 6
v 0.2 2 5.9
v 0.2 2.2 6
v 0.2 2.2 5.9
v 3.2 0.4 6.4
v 3.2 0.4 6
v 3.2 0.7 6
v 3.2 0.8 6.4
v 3.2 0.8 6
v 4.8 0.4 6.4
v 4.8 0.4 6
v 4.8 0.8 6.4
v 4.8 0.8 6
v 4.8 1.6 6.1
v 4.8 1.6 6
v 4.8 2 6.1
v 4.8 2 6
v 6 0.4 6
v 6 0.4 5.6
v 6 0.8 6
v 6 0.8 5.6
v 6 4.4 6
v 6 4.4 5.6
v 6.3 4.4 6
v 6.3 4.4 5.6
v 6.3 5 6
v 6.3 5 5.6
v -3.2 0.4 6.4
v -3.2 0.8 6.4
v -2.8 0.4 6.4
v -2.8 0.8 6.4
v 2 0.4 6.4
v 2 0.8 6.4
v 3.2 0.4 6.4
v 3.2 0.8 6.4
v 4.4 0.4 6.4
v 4.4 0.8 6.4
v 4.8 0.4 6.4
v 4.8 0.8 6.4
v -2.4 3.2 6.1
v -2.4 3.6 6.1
v -1.6 3.2 6.1
v -1.6 3.6 6.1
v 4 1.6 6.1
v 4 2 6.1
v 4.8 1.6 6.1
v 4.8 2 6.1
v -3.6 0.4 6
v -3.6 0.7 6
v -3.6 4.4 6
v -3.6 5 6
v -3.2 0.4 6
v -3.2 0.7 6
v -3.2 0.8 6
v -2.8 0.4 6
v -2.8 0.7 6
v -2.8 0.8 6
v -2.4 3.2 6
v -2.4 3.6 6
v -1.6 3.2 6
v -1.6 3.6 6
v -0.8 0.4 6
v -0.8 0.7 6
v -0.8 4.7 6
v -0.8 5 6
v -0.4 0.4 6
v -0.4 0.7 6
v -0.3 4.7 6
v -0.3 5 6
v 0.2 2 6
v 0.2 2.2 6
v 0.6 2 6
v 0.6 2.2 6
v 2 0.4 6
v 2 0.7 6
v 2 0.8 6
v 3.2 0.4 6
v 3.2 0.7 6
v 3.2 0.8 6
v 4 1.6 6
v 4 2 6
v 4.4 0.4 6
v 4.4 0.7 6
v 4.4 0.8 6
v 4.8 0.4 6
v 4.8 0.8 6
v 4.8 1.6 6
v 4.8 2 6
v 6 0.4 6
v 6 0.8 6
v 6 4.4 6
v 6 5 6
v 6.3 4.4 6
v 6.3 5 6
v -0.8 4.7 5.9
v -0.8 5 5.9
v -0.3 4.7 5.9
v -0.3 5 5.9
v 0.2 2 5.9
v 0.2 2.2 5.9
v 0.6 2 5.9
v 0.6 2.2 5.9
v -3.6 0.4 5.6
v -3.6 0.7 5.6
v -3.6 4.4 5.6
v -3.6 5 5.6
v -3.5 0.7 5.6
v -3.5 0.8 5.6
v -3.2 0.4 5.6
v -3.2 0.8 5.6
v -2.8 0.4 5.6
v -2.8 0.8 5.6
v -2.4 3.2 5.6
v -2.4 3.6 5.6
v -1.6 3.2 5.6
v -1.6 3.6 5.6
v -0.8 0.4 5.6
v -0.8 0.8 5.6
v -0.4 0.4 5.6
v -0.4 0.8 5.6
v 4 1.6 5.6
v 4 2 5.6
v 4.4 0.4 5.6
v 4.4 0.8 5.6
v 4.8 0.4 5.6
v 4.8 0.8 5.6
v 4.8 1.6 5.6
v 4.8 2 5.6
v 6 0.4 5.6
v 6 0.8 5.6
v 6 4.4 5.6
v 6 5 5.6
v 6.3 4.4 5.6
v 6.3 5 5.6
v -3.2 0.4 6.4
v -2.8 0.4 6.4
v 2 0.4 6.4
v 3.2 0.4 6.4
v 4.4 0.4 6.4
v 4.8 0.4 6.4
v -3.6 0.4 6
v -3.2 0.4 6
v -2.8 0.4 6
v -0.8 0.4 6
v -0.4 0.4 6
v 2 0.4 6
v 3.2 0.4 6
v 4.4 0.4 6
v 4.8 0.4 6
v 6 0.4 6
v -3.6 0.4 5.6
v -3.2 0.4 5.6
v -2.8 0.4 5.6
v -0.8 0.4 5.6
v -0.4 0.4 5.6
v 4.4 0.4 5.6
v 4.8 0.4 5.6
v 6 0.4 5.6
v 4 1.6 6.1
v 4.8 1.6 6.1
v 4 1.6 6
v 4.8 1.6 6
v 0.2 2.2 6
v 0.6 2.2 6
v 0.2 2.2 5.9
v 0.6 2.2 5.9
v -2.4 3.2 6.1
v -1.6 3.2 6.1
v -2.4 3.2 6
v -1.6 3.2 6
v 6 4.4 6
v 6.3 4.4 6
v 6 4.4 5.6
v 6.3 4.4 5.6
v -3.2 0.8 6.4
v -2.8 0.8 6.4
v 2 0.8 6.4
v 3.2 0.8 6.4
v 4.4 0.8 6.4
v 4.8 0.8 6.4
v -3.2 0.8 6
v -2.8 0.8 6
v 2 0.8 6
v 3.2 0.8 6
v 4.4 0.8 6
v 4.8 0.8 6
v 4 2 6.1
v 4.8 2 6.1
v 0.2 2 6
v 0.6 2 6
v 4 2 6
v 4.8 2 6
v 0.2 2 5.9
v 0.6 2 5.9
v -2.4 3.6 6.1
v -1.6 3.6 6.1
v -2.4 3.6 6
v -1.6 3.6 6
v -0.8 4.7 6
v -0.3 4.7 6
v -0.8 4.7 5.9
v -0.3 4.7 5.9
v -3.6 5 6
v -0.8 5 6
v -0.3 5 6
v 6 5 6
v 6.3 5 6
v -0.8 5 5.9
v -0.3 5 5.9
v -3.6 5 5.6
v 6 5 5.6
v 6.3 5 5.6

# faces
f 3/2/1 2/2/1 1/2/1
f 4/2/1 2/2/1 3/2/1
f 5/6/1 4/6/1 3/6/1
f 6/6/1 4/6/1 5/6/1
f 7/5/1 6/5/1 5/5/1
f 8/5/1 6/5/1 7/5/1
f 11/3/1 10/3/1 9/3/1
f 12/3/1 11/3/1 9/3/1
f 13/3/1 11/3/1 12/3/1
f 16/5/1 15/5/1 14/5/1
f 17/5/1 15/5/1 16/5/1
f 20/5/1 19/5/1 18/5/1
f 21/5/1 19/5/1 20/5/1
f 24/6/1 23/6/1 22/6/1
f 25/6/1 23/6/1 24/6/1
f 28/3/1 27/3/1 26/3/1
f 29/3/1 28/3/1 26/3/1
f 30/3/1 28/3/1 29/3/1
f 33/5/1 32/5/1 31/5/1
f 34/5/1 32/5/1 33/5/1
f 37/3/1 36/3/1 35/3/1
f 38/3/1 37/3/1 35/3/1
f 39/3/1 37/3/1 38/3/1
f 40/3/2 41/3/2 42/3/2
f 40/3/2 42/3/2 43/3/2
f 43/3/2 42/3/2 44/3/2
f 45/5/2 46/5/2 47/5/2
f 47/5/2 46/5/2 48/5/2
f 49/5/2 50/5/2 51/5/2
f 51/5/2 50/5/2 52/5/2
f 53/6/2 54/6/2 55/6/2
f 55/6/2 54/6/2 56/6/2
f 57/3/2 58/3/2 59/3/2
f 57/3/2 59/3/2 60/3/2
f 60/3/2 59/3/2 61/3/2
f 62/3/2 63/3/2 64/3/2
f 64/3/2 63/3/2 65/3/2
f 66/5/2 67/5/2 68/5/2
f 68/5/2 67/5/2 69/5/2
f 70/2/2 71/2/2 72/2/2
f 72/2/2 71/2/2 73/2/2
f 72/6/2 73/6/2 74/6/2
f 74/6/2 73/6/2 75/6/2
f 76/1/2 77/1/2 78/1/2
f 78/1/2 77/1/2 79/1/2
f 82/3/3 81/3/3 80/3/3
f 83/3/3 81/3/3 82/3/3
f 86/3/3 85/3/3 84/3/3
f 87/3/3 85/3/3 86/3/3
f 90/3/3 89/3/3 88/3/3
f 91/3/3 89/3/3 90/3/3
f 94/5/3 93/5/3 92/5/3
f 95/5/3 93/5/3 94/5/3
f 98/5/3 97/5/3 96/5/3
f 99/5/3 97/5/3 98/5/3
f 104/2/3 101/2/3 100/2/3
f 105/6/3 102/6/3 101/6/3
f 105/2/3 101/2/3 104/2/3
f 106/6/3 102/6/3 105/6/3
f 109/6/3 102/6/3 106/6/3
f 110/6/3 102/6/3 109/6/3
f 110/6/3 109/6/3 108/6/3
f 111/6/3 102/6/3 110/6/3
f 112/6/3 110/6/3 108/6/3
f 113/6/3 102/6/3 111/6/3
f 114/2/3 108/2/3 107/2/3
f 115/6/3 113/6/3 112/6/3
f 115/2/3 108/2/3 114/2/3
f 115/6/3 112/6/3 108/6/3
f 116/5/3 103/5/3 102/5/3
f 117/5/3 103/5/3 116/5/3
f 118/3/3 115/3/3 114/3/3
f 119/6/3 113/6/3 115/6/3
f 119/3/3 115/3/3 118/3/3
f 120/5/3 116/5/3 102/5/3
f 122/6/3 113/6/3 119/6/3
f 123/6/3 113/6/3 122/6/3
f 124/6/3 122/6/3 119/6/3
f 125/6/3 113/6/3 123/6/3
f 126/2/3 119/2/3 118/2/3
f 127/6/3 125/6/3 124/6/3
f 127/2/3 119/2/3 126/2/3
f 127/6/3 124/6/3 119/6/3
f 128/6/3 125/6/3 127/6/3
f 131/6/3 125/6/3 128/6/3
f 132/6/3 125/6/3 131/6/3
f 132/6/3 131/6/3 130/6/3
f 133/6/3 125/6/3 132/6/3
f 134/2/3 130/2/3 129/2/3
f 135/6/3 132/6/3 130/6/3
f 135/2/3 130/2/3 134/2/3
f 136/6/3 132/6/3 135/6/3
f 138/6/3 132/6/3 136/6/3
f 139/6/3 132/6/3 138/6/3
f 140/6/3 125/6/3 133/6/3
f 141/2/3 138/2/3 137/2/3
f 142/6/3 139/6/3 138/6/3
f 142/2/3 138/2/3 141/2/3
f 142/6/3 140/6/3 139/6/3
f 143/6/3 102/6/3 113/6/3
f 143/6/3 140/6/3 142/6/3
f 143/5/3 121/5/3 120/5/3
f 143/5/3 120/5/3 102/5/3
f 143/6/3 125/6/3 140/6/3
f 143/6/3 113/6/3 125/6/3
f 144/5/3 121/5/3 143/5/3
f 145/1/3 144/1/3 143/1/3
f 146/1/3 144/1/3 145/1/3
f 149/5/3 148/5/3 147/5/3
f 150/5/3 148/5/3 149/5/3
f 153/6/3 152/6/3 151/6/3
f 154/6/3 152/6/3 153/6/3
f 155/2/4 156/2/4 159/2/4
f 156/6/4 157/6/4 159/6/4
f 159/6/4 157/6/4 160/6/4
f 155/2/4 159/2/4 161/2/4
f 159/2/4 160/2/4 161/2/4
f 160/6/4 157/6/4 162/6/4
f 161/2/4 160/2/4 162/2/4
f 161/3/4 162/3/4 163/3/4
f 162/6/4 157/6/4 164/6/4
f 163/3/4 162/3/4 164/3/4
f 164/6/4 157/6/4 165/6/4
f 165/6/4 157/6/4 166/6/4
f 164/6/4 165/6/4 167/6/4
f 165/4/4 166/4/4 167/4/4
f 166/6/4 157/6/4 168/6/4
f 167/4/4 166/4/4 168/4/4
f 163/2/4 164/2/4 169/2/4
f 164/6/4 167/6/4 170/6/4
f 169/2/4 164/2/4 170/2/4
f 167/6/4 168/6/4 170/6/4
f 169/3/4 170/3/4 171/3/4
f 170/6/4 168/6/4 172/6/4
f 171/3/4 170/3/4 172/3/4
f 172/6/4 168/6/4 173/6/4
f 173/6/4 168/6/4 174/6/4
f 171/2/4 172/2/4 175/2/4
f 172/6/4 173/6/4 176/6/4
f 175/2/4 172/2/4 176/2/4
f 175/3/4 176/3/4 177/3/4
f 176/6/4 173/6/4 178/6/4
f 177/3/4 176/3/4 178/3/4
f 173/4/4 174/4/4 179/4/4
f 178/6/4 173/6/4 179/6/4
f 174/6/4 168/6/4 180/6/4
f 179/4/4 174/4/4 180/4/4
f 177/2/4 178/2/4 181/2/4
f 178/6/4 179/6/4 182/6/4
f 181/2/4 178/2/4 182/2/4
f 179/6/4 180/6/4 182/6/4
f 157/5/4 158/5/4 183/5/4
f 182/6/4 180/6/4 183/6/4
f 168/6/4 157/6/4 183/6/4
f 180/6/4 168/6/4 183/6/4
f 183/5/4 158/5/4 184/5/4
f 183/1/4 184/1/4 185/1/4
f 185/1/4 184/1/4 186/1/4
f 194/3/5 188/3/5 187/3/5
f 195/3/5 188/3/5 194/3/5
f 198/3/5 190/3/5 189/3/5
f 199/3/5 190/3/5 198/3/5
f 200/3/5 192/3/5 191/3/5
f 201/3/5 192/3/5 200/3/5
f 203/2/5 194/2/5 193/2/5
f 204/3/5 195/3/5 194/3/5
f 204/2/5 194/2/5 203/2/5
f 205/2/5 196/2/5 195/2/5
f 205/3/5 195/3/5 204/3/5
f 206/3/5 197/3/5 196/3/5
f 206/2/5 196/2/5 205/2/5
f 207/2/5 199/2/5 198/2/5
f 207/3/5 197/3/5 206/3/5
f 207/2/5 198/2/5 197/2/5
f 207/2/5 200/2/5 199/2/5
f 208/3/5 201/3/5 200/3/5
f 208/2/5 200/2/5 207/2/5
f 209/2/5 202/2/5 201/2/5
f 209/3/5 201/3/5 208/3/5
f 210/2/5 202/2/5 209/2/5
f 213/5/5 212/5/5 211/5/5
f 214/5/5 212/5/5 213/5/5
f 217/6/5 216/6/5 215/6/5
f 218/6/5 216/6/5 217/6/5
f 221/5/5 220/5/5 219/5/5
f 222/5/5 220/5/5 221/5/5
f 225/1/5 224/1/5 223/1/5
f 226/1/5 224/1/5 225/1/5
f 227/3/6 228/3/6 233/3/6
f 233/3/6 228/3/6 234/3/6
f 229/3/6 230/3/6 235/3/6
f 235/3/6 230/3/6 236/3/6
f 231/3/6 232/3/6 237/3/6
f 237/3/6 232/3/6 238/3/6
f 239/5/6 240/5/6 243/5/6
f 243/5/6 240/5/6 244/5/6
f 241/6/6 242/6/6 245/6/6
f 245/6/6 242/6/6 246/6/6
f 247/5/6 248/5/6 249/5/6
f 249/5/6 248/5/6 250/5/6
f 251/5/6 252/5/6 253/5/6
f 253/5/6 252/5/6 254/5/6
f 255/5/6 256/5/6 260/5/6
f 257/5/6 258/5/6 261/5/6
f 255/5/6 260/5/6 262/5/6
f 260/5/6 261/5/6 262/5/6
f 258/1/6 259/1/6 263/1/6
f 262/5/6 261/5/6 263/5/6
f 261/5/6 258/5/6 263/5/6
f 263/1/6 259/1/6 264/1/6
