# MagicaVoxel @ Ephtracy

# group
o 

# material
mtllib Back2Front2.mtl
usemtl palette

# normals
vn -1 0 0
vn 1 0 0
vn 0 0 1
vn 0 0 -1
vn 0 -1 0
vn 0 1 0

# texcoords
vt 0.853516 0.5
vt 0.884766 0.5
vt 0.908203 0.5
vt 0.923828 0.5
vt 0.927734 0.5

# verts
v 7.4 0.4 5.6
v 7.4 0.4 -5.9
v 7.4 0.4 -6
v 7.4 0.8 5.6
v 7.4 0.8 -5.9
v 7.4 4.4 5.5
v 7.4 4.4 -5.9
v 7.4 4.8 5.5
v 7.4 4.8 -5.9
v 7.4 5 5.6
v 7.4 5 -6
v 7.8 0.4 5.6
v 7.8 0.4 -5.9
v 7.8 0.4 -6
v 7.8 0.8 5.6
v 7.8 0.8 -5.9
v 7.8 4.4 5.6
v 7.8 4.4 5.5
v 7.8 4.4 -4.4
v 7.8 4.4 -4.8
v 7.8 4.4 -5.9
v 7.8 5 -5.9
v 7.8 5 -6
v 8.1 4.4 5.6
v 8.1 4.4 5.5
v 8.1 4.4 -4.4
v 8.1 4.4 -4.8
v 8.1 4.4 -5.9
v 8.1 4.8 -2.4
v 8.1 4.8 -2.8
v 8.1 4.8 -4.4
v 8.1 4.8 -4.8
v 8.1 5 5.6
v 8.1 5 5.5
v 8.1 5 -2.4
v 8.1 5 -2.8
v 8.1 5 -5.9
v 8.2 4.4 -4.4
v 8.2 4.4 -4.8
v 8.2 4.8 -2.4
v 8.2 4.8 -2.8
v 8.2 4.8 -4.4
v 8.2 4.8 -4.8
v 8.2 5 -2.4
v 8.2 5 -2.8
v 7.4 0.4 5.6
v 7.4 0.8 5.6
v 7.4 5 5.6
v 7.8 0.4 5.6
v 7.8 0.8 5.6
v 7.8 4.4 5.6
v 8.1 4.4 5.6
v 8.1 5 5.6
v 8.1 4.8 -2.4
v 8.1 5 -2.4
v 8.2 4.8 -2.4
v 8.2 5 -2.4
v 8.1 4.4 -4.4
v 8.1 4.8 -4.4
v 8.2 4.4 -4.4
v 8.2 4.8 -4.4
v 8.1 4.8 -2.8
v 8.1 5 -2.8
v 8.2 4.8 -2.8
v 8.2 5 -2.8
v 8.1 4.4 -4.8
v 8.1 4.8 -4.8
v 8.2 4.4 -4.8
v 8.2 4.8 -4.8
v 7.8 4.4 -5.9
v 7.8 5 -5.9
v 8.1 4.4 -5.9
v 8.1 5 -5.9
v 7.4 0.4 -6
v 7.4 5 -6
v 7.8 0.4 -6
v 7.8 5 -6
v 7.4 0.4 5.6
v 7.8 0.4 5.6
v 7.4 0.4 -5.9
v 7.8 0.4 -5.9
v 7.4 0.4 -6
v 7.8 0.4 -6
v 7.8 4.4 5.6
v 8.1 4.4 5.6
v 7.8 4.4 5.5
v 8.1 4.4 5.5
v 7.8 4.4 -4.4
v 8.1 4.4 -4.4
v 8.2 4.4 -4.4
v 7.8 4.4 -4.8
v 8.1 4.4 -4.8
v 8.2 4.4 -4.8
v 7.8 4.4 -5.9
v 8.1 4.4 -5.9
v 8.1 4.8 -2.4
v 8.2 4.8 -2.4
v 8.1 4.8 -2.8
v 8.2 4.8 -2.8
v 8.1 4.8 -4.4
v 8.2 4.8 -4.4
v 8.1 4.8 -4.8
v 8.2 4.8 -4.8
v 7.4 5 5.6
v 8.1 5 5.6
v 7.8 5 5.5
v 8.1 5 5.5
v 7.8 5 -2.4
v 8.1 5 -2.4
v 8.2 5 -2.4
v 7.8 5 -2.8
v 8.1 5 -2.8
v 8.2 5 -2.8
v 7.8 5 -5.9
v 8.1 5 -5.9
v 7.4 5 -6
v 7.8 5 -6

# faces
f 4/3/1 2/3/1 1/3/1
f 5/4/1 3/4/1 2/4/1
f 5/3/1 2/3/1 4/3/1
f 6/4/1 5/4/1 4/4/1
f 7/4/1 3/4/1 5/4/1
f 7/4/1 5/4/1 6/4/1
f 8/4/1 6/4/1 4/4/1
f 8/5/1 7/5/1 6/5/1
f 9/4/1 3/4/1 7/4/1
f 9/5/1 7/5/1 8/5/1
f 10/4/1 8/4/1 4/4/1
f 10/4/1 9/4/1 8/4/1
f 11/4/1 3/4/1 9/4/1
f 11/4/1 9/4/1 10/4/1
f 12/3/2 13/3/2 15/3/2
f 13/4/2 14/4/2 16/4/2
f 15/3/2 13/3/2 16/3/2
f 15/4/2 16/4/2 17/4/2
f 17/4/2 16/4/2 18/4/2
f 18/4/2 16/4/2 19/4/2
f 19/4/2 16/4/2 20/4/2
f 16/4/2 14/4/2 21/4/2
f 20/4/2 16/4/2 21/4/2
f 21/4/2 14/4/2 22/4/2
f 22/4/2 14/4/2 23/4/2
f 25/1/2 26/1/2 29/1/2
f 29/1/2 26/1/2 30/1/2
f 30/1/2 26/1/2 31/1/2
f 27/1/2 28/1/2 32/1/2
f 24/4/2 25/4/2 33/4/2
f 25/1/2 29/1/2 34/1/2
f 33/4/2 25/4/2 34/4/2
f 34/1/2 29/1/2 35/1/2
f 31/1/2 32/1/2 36/1/2
f 30/1/2 31/1/2 36/1/2
f 32/1/2 28/1/2 37/1/2
f 36/1/2 32/1/2 37/1/2
f 38/2/2 39/2/2 42/2/2
f 42/2/2 39/2/2 43/2/2
f 40/2/2 41/2/2 44/2/2
f 44/2/2 41/2/2 45/2/2
f 49/3/3 47/3/3 46/3/3
f 50/4/3 48/4/3 47/4/3
f 50/3/3 47/3/3 49/3/3
f 51/4/3 48/4/3 50/4/3
f 52/4/3 48/4/3 51/4/3
f 53/4/3 48/4/3 52/4/3
f 56/2/3 55/2/3 54/2/3
f 57/2/3 55/2/3 56/2/3
f 60/2/3 59/2/3 58/2/3
f 61/2/3 59/2/3 60/2/3
f 62/2/4 63/2/4 64/2/4
f 64/2/4 63/2/4 65/2/4
f 66/2/4 67/2/4 68/2/4
f 68/2/4 67/2/4 69/2/4
f 70/1/4 71/1/4 72/1/4
f 72/1/4 71/1/4 73/1/4
f 74/4/4 75/4/4 76/4/4
f 76/4/4 75/4/4 77/4/4
f 80/3/5 79/3/5 78/3/5
f 81/3/5 79/3/5 80/3/5
f 82/4/5 81/4/5 80/4/5
f 83/4/5 81/4/5 82/4/5
f 86/4/5 85/4/5 84/4/5
f 87/4/5 85/4/5 86/4/5
f 88/1/5 87/1/5 86/1/5
f 89/1/5 87/1/5 88/1/5
f 91/2/5 89/2/5 88/2/5
f 91/2/5 90/2/5 89/2/5
f 92/2/5 90/2/5 91/2/5
f 93/2/5 90/2/5 92/2/5
f 94/1/5 92/1/5 91/1/5
f 95/1/5 92/1/5 94/1/5
f 98/2/5 97/2/5 96/2/5
f 99/2/5 97/2/5 98/2/5
f 100/2/6 101/2/6 102/2/6
f 102/2/6 101/2/6 103/2/6
f 104/4/6 105/4/6 106/4/6
f 106/4/6 105/4/6 107/4/6
f 104/4/6 106/4/6 108/4/6
f 106/1/6 107/1/6 108/1/6
f 108/1/6 107/1/6 109/1/6
f 108/2/6 109/2/6 111/2/6
f 109/2/6 110/2/6 111/2/6
f 104/4/6 108/4/6 111/4/6
f 111/2/6 110/2/6 112/2/6
f 112/2/6 110/2/6 113/2/6
f 104/4/6 111/4/6 114/4/6
f 111/1/6 112/1/6 114/1/6
f 114/1/6 112/1/6 115/1/6
f 104/4/6 114/4/6 116/4/6
f 116/4/6 114/4/6 117/4/6
